<?xml version="1.0" encoding="UTF-8"?>
<svg width="119px" height="20px" viewBox="0 0 119 20" version="1.1" xmlns="http://www.w3.org/2000/svg" xmlns:xlink="http://www.w3.org/1999/xlink">
    <!-- Generator: Sketch 63.1 (92452) - https://sketch.com -->
    <title>Light Background_1</title>
    <desc>Created with Sketch.</desc>
    <defs>
        <polygon id="path-1" points="0 0.0872342193 13.6168106 0.0872342193 13.6168106 13.7043189 0 13.7043189"></polygon>
        <polygon id="path-3" points="0.230730897 0.0872342193 13.8478405 0.0872342193 13.8478405 13.7043189 0.230730897 13.7043189"></polygon>
        <polygon id="path-5" points="0.110656146 0.0872342193 13.7277658 0.0872342193 13.7277658 13.7043189 0.110656146 13.7043189"></polygon>
        <polygon id="path-7" points="0.239850498 0.0872342193 13.8569601 0.0872342193 13.8569601 13.7043189 0.239850498 13.7043189"></polygon>
        <polygon id="path-9" points="0.119900332 0.0872342193 13.73701 0.0872342193 13.73701 13.7043189 0.119900332 13.7043189"></polygon>
    </defs>
    <g id="Light-Background_1" stroke="none" stroke-width="1" fill="none" fill-rule="evenodd">
        <g id="Group-3" transform="translate(8.000000, 3.000000)">
            <g id="Group-2" transform="translate(28.000000, 0.000000)">
                <g id="Group-24">
                    <path d="M61.9100581,7.05782392 C61.9100581,3.65217608 64.6803239,0.881910299 68.0857226,0.881910299 C71.4913704,0.881910299 74.2616362,3.65217608 74.2616362,7.05782392 C74.2616362,10.4634718 71.4913704,13.2334884 68.0857226,13.2334884 C64.6803239,13.2334884 61.9100581,10.4634718 61.9100581,7.05782392" id="Fill-1" fill="#FFFFFF"></path>
                    <path d="M46.5908721,7.05782392 C46.5908721,3.65217608 49.3611379,0.881910299 52.7667857,0.881910299 C56.1724336,0.881910299 58.9424502,3.65217608 58.9424502,7.05782392 C58.9424502,10.4634718 56.1724336,13.2334884 52.7667857,13.2334884 C49.3611379,13.2334884 46.5908721,10.4634718 46.5908721,7.05782392" id="Fill-3" fill="#FFFFFF"></path>
                    <path d="M31.2713372,7.05782392 C31.2713372,3.65217608 34.041603,0.881910299 37.4472508,0.881910299 C40.8528987,0.881910299 43.6229153,3.65217608 43.6229153,7.05782392 C43.6229153,10.4634718 40.8528987,13.2334884 37.4472508,13.2334884 C34.041603,13.2334884 31.2713372,10.4634718 31.2713372,7.05782392" id="Fill-5" fill="#FFFFFF"></path>
                    <path d="M15.9521512,7.05782392 C15.9521512,3.65217608 18.7226661,0.881910299 22.1280648,0.881910299 C25.5337126,0.881910299 28.3037292,3.65217608 28.3037292,7.05782392 C28.3037292,10.4634718 25.5337126,13.2334884 22.1280648,13.2334884 C18.7226661,13.2334884 15.9521512,10.4634718 15.9521512,7.05782392" id="Fill-7" fill="#FFFFFF"></path>
                    <g id="Group-11" transform="translate(0.000000, 0.162060)">
                        <mask id="mask-2" fill="white">
                            <use xlink:href="#path-1"></use>
                        </mask>
                        <g id="Clip-10"></g>
                        <path d="M-4.9833887e-05,6.89553987 C-4.9833887e-05,3.14130399 3.0542691,0.0872342193 6.80850498,0.0872342193 C10.56299,0.0872342193 13.6168106,3.14130399 13.6168106,6.89553987 C13.6168106,10.6500249 10.56299,13.7043439 6.80850498,13.7043439 C3.0542691,13.7043439 -4.9833887e-05,10.6500249 -4.9833887e-05,6.89553987" id="Fill-9" fill="#00AA6C" mask="url(#mask-2)"></path>
                    </g>
                    <g id="Group-14" transform="translate(61.046512, 0.162060)">
                        <mask id="mask-4" fill="white">
                            <use xlink:href="#path-3"></use>
                        </mask>
                        <g id="Clip-13"></g>
                        <path d="M12.1554817,6.89553987 C12.1554817,4.07519103 9.85988372,1.77959302 7.03953488,1.77959302 C4.21843854,1.77959302 1.9230897,4.07519103 1.9230897,6.89553987 C1.9230897,9.71638704 4.21843854,11.9923007 7.03953488,11.9923007 C9.85988372,11.9923007 12.1554817,9.71638704 12.1554817,6.89553987 M0.230730897,6.89553987 C0.230730897,3.14130399 3.28480066,0.0872342193 7.03953488,0.0872342193 C10.7937708,0.0872342193 13.8478405,3.14130399 13.8478405,6.89553987 C13.8478405,10.6500249 10.7937708,13.7043439 7.03953488,13.7043439 C3.28480066,13.7043439 0.230730897,10.6500249 0.230730897,6.89553987" id="Fill-12" fill="#00AA6C" mask="url(#mask-4)"></path>
                    </g>
                    <g id="Group-17" transform="translate(45.847176, 0.162060)">
                        <mask id="mask-6" fill="white">
                            <use xlink:href="#path-5"></use>
                        </mask>
                        <g id="Clip-16"></g>
                        <path d="M12.035407,6.89553987 C12.035407,4.07519103 9.74005814,1.77959302 6.91946013,1.77959302 C4.09861296,1.77959302 1.80326412,4.07519103 1.80326412,6.89553987 C1.80326412,9.71638704 4.09861296,11.9923007 6.91946013,11.9923007 C9.74005814,11.9923007 12.035407,9.71638704 12.035407,6.89553987 M0.110656146,6.89553987 C0.110656146,3.14130399 3.16497508,0.0872342193 6.91946013,0.0872342193 C10.673696,0.0872342193 13.7277658,3.14130399 13.7277658,6.89553987 C13.7277658,10.6500249 10.673696,13.7043439 6.91946013,13.7043439 C3.16497508,13.7043439 0.110656146,10.6500249 0.110656146,6.89553987" id="Fill-15" fill="#00AA6C" mask="url(#mask-6)"></path>
                    </g>
                    <g id="Group-20" transform="translate(30.398671, 0.162060)">
                        <mask id="mask-8" fill="white">
                            <use xlink:href="#path-7"></use>
                        </mask>
                        <g id="Clip-19"></g>
                        <path d="M12.1646013,6.89553987 C12.1646013,4.07519103 9.86925249,1.77959302 7.04865449,1.77959302 C4.22780731,1.77959302 1.93245847,4.07519103 1.93245847,6.89553987 C1.93245847,9.71638704 4.22780731,11.9923007 7.04865449,11.9923007 C9.86925249,11.9923007 12.1646013,9.71638704 12.1646013,6.89553987 M0.239850498,6.89553987 C0.239850498,3.14130399 3.29392027,0.0872342193 7.04865449,0.0872342193 C10.8028904,0.0872342193 13.8569601,3.14130399 13.8569601,6.89553987 C13.8569601,10.6500249 10.8028904,13.7043439 7.04865449,13.7043439 C3.29392027,13.7043439 0.239850498,10.6500249 0.239850498,6.89553987" id="Fill-18" fill="#00AA6C" mask="url(#mask-8)"></path>
                    </g>
                    <g id="Group-23" transform="translate(15.199336, 0.162060)">
                        <mask id="mask-10" fill="white">
                            <use xlink:href="#path-9"></use>
                        </mask>
                        <g id="Clip-22"></g>
                        <path d="M12.0446512,6.89553987 C12.0446512,4.07519103 9.74930233,1.77959302 6.92870432,1.77959302 C4.10785714,1.77959302 1.81250831,4.07519103 1.81250831,6.89553987 C1.81250831,9.71638704 4.10785714,11.9923007 6.92870432,11.9923007 C9.74930233,11.9923007 12.0446512,9.71638704 12.0446512,6.89553987 M0.119900332,6.89553987 C0.119900332,3.14130399 3.1739701,0.0872342193 6.92870432,0.0872342193 C10.6829402,0.0872342193 13.73701,3.14130399 13.73701,6.89553987 C13.73701,10.6500249 10.6829402,13.7043439 6.92870432,13.7043439 C3.1739701,13.7043439 0.119900332,10.6500249 0.119900332,6.89553987" id="Fill-21" fill="#00AA6C" mask="url(#mask-10)"></path>
                    </g>
                </g>
            </g>
            <g id="Group" transform="translate(0.000000, 0.000000)" fill="#000000">
                <path d="M7.53142525,7.91843387 C7.53142525,8.96130186 6.64940001,9.80665621 5.56137044,9.80665621 C4.47334088,9.80665621 3.59131564,8.96130186 3.59131564,7.91843387 C3.59131564,6.87559906 4.47334088,6.03024419 5.56137044,6.03024419 C6.64922695,6.02948172 7.53170214,6.87413944 7.53246358,7.91677521 L7.53246358,7.91843387 L7.53142525,7.91843387 Z M16.6687139,6.03024471 C15.5806843,6.03024471 14.6986591,6.87559906 14.6986591,7.91843387 C14.6986591,8.96130186 15.5806843,9.80665621 16.6687139,9.80665621 C17.7567781,9.80665621 18.6387687,8.96130186 18.6387687,7.91843387 C18.6387687,6.87559906 17.7567781,6.03024471 16.6687139,6.03024471 L16.6687139,6.03024471 Z M16.6687139,11.5203872 C14.5931995,11.5203872 12.9106578,9.90776833 12.9106578,7.91843387 C12.9106578,5.92913259 14.5931995,4.31648058 16.6687139,4.31648058 C18.7442282,4.31648058 20.4267699,5.92913259 20.4267699,7.91843387 C20.4267699,9.90776833 18.7442282,11.5203872 16.6687139,11.5203872 L16.6687139,11.5203872 Z M11.1167727,7.81460155 C11.1167727,5.44437164 9.31700373,3.41051867 6.94580811,2.54005215 C9.61507316,1.47432778 12.6178146,1.47432778 15.2870451,2.54005215 C12.9151572,3.4108504 11.1167727,5.44437164 11.1167727,7.81460155 L11.1167727,7.81460155 Z M5.56240877,11.5203872 C3.48689443,11.5203872 1.80435271,9.90776833 1.80435271,7.91843387 C1.80435271,5.92913259 3.48689443,4.31648058 5.56240877,4.31648058 C7.63792312,4.31648058 9.32046483,5.92913259 9.32046483,7.91843387 C9.32046483,9.90776833 7.63792312,11.5203872 5.56240877,11.5203872 L5.56240877,11.5203872 Z M20.4129256,3.98474791 L22.23,2.08989092 L18.2016325,2.08989092 C13.9295693,-0.696630307 8.31435936,-0.696630307 4.04229621,2.08989092 L0.00354541241,2.08989092 L1.82061986,3.98474791 C-0.450204034,5.96064719 -0.619866871,9.32683808 1.44166465,11.5033361 C3.50319618,13.68 7.01527227,13.8424827 9.28609616,11.8665834 C9.3029863,11.8518876 9.31970339,11.8371255 9.33638586,11.8222971 L11.1167727,13.68 L12.8961212,11.824586 C13.9212627,12.7375807 15.2693243,13.244236 16.6687139,13.2424114 C19.7355894,13.2424114 22.2241161,10.859244 22.2241161,7.9197608 C22.2264351,6.42198781 21.5686541,4.99291666 20.4129256,3.98474791 L20.4129256,3.98474791 Z" id="Fill-3"></path>
            </g>
        </g>
    </g>
</svg>